<?xml version="1.0" standalone="no"?>
<!DOCTYPE svg PUBLIC "-//W3C//DTD SVG 20010904//EN"
 "http://www.w3.org/TR/2001/REC-SVG-20010904/DTD/svg10.dtd">
<svg version="1.0" xmlns="http://www.w3.org/2000/svg"
 width="235.000000pt" height="165.000000pt" viewBox="0 0 235.000000 165.000000"
 preserveAspectRatio="xMidYMid meet">
<g transform="translate(0.000000,165.000000) scale(0.100000,-0.100000)"
fill="#000000" stroke="none">
<path d="M55 1640 c3 -5 8 -10 11 -10 2 0 4 5 4 10 0 6 -5 10 -11 10 -5 0 -7
-4 -4 -10z"/>
<path d="M120 1646 c0 -2 7 -6 15 -10 8 -3 15 -1 15 4 0 6 -7 10 -15 10 -8 0
-15 -2 -15 -4z"/>
<path d="M528 1643 c6 -2 18 -2 25 0 6 3 1 5 -13 5 -14 0 -19 -2 -12 -5z"/>
<path d="M820 1646 c0 -2 7 -6 15 -10 8 -3 15 -1 15 4 0 6 -7 10 -15 10 -8 0
-15 -2 -15 -4z"/>
<path d="M975 1640 c3 -5 8 -10 11 -10 2 0 4 5 4 10 0 6 -5 10 -11 10 -5 0 -7
-4 -4 -10z"/>
<path d="M1028 1643 c7 -3 16 -2 19 1 4 3 -2 6 -13 5 -11 0 -14 -3 -6 -6z"/>
<path d="M1098 1643 c7 -3 16 -2 19 1 4 3 -2 6 -13 5 -11 0 -14 -3 -6 -6z"/>
<path d="M1140 1641 c0 -6 5 -13 10 -16 6 -3 10 1 10 9 0 9 -4 16 -10 16 -5 0
-10 -4 -10 -9z"/>
<path d="M1468 1643 c6 -2 18 -2 25 0 6 3 1 5 -13 5 -14 0 -19 -2 -12 -5z"/>
<path d="M380 795 l0 -775 760 0 760 0 -2 773 -3 772 -757 3 -758 2 0 -775z
m1500 0 l0 -755 -740 0 -740 0 0 755 0 755 740 0 740 0 0 -755z"/>
<path d="M783 1473 c0 -9 4 -10 14 -2 7 6 13 12 13 14 0 1 -6 2 -13 2 -8 0
-14 -6 -14 -14z"/>
<path d="M847 1461 c-16 -17 -16 -19 1 -34 17 -15 19 -15 35 0 16 16 17 16 17
0 0 -9 6 -17 13 -17 6 0 4 -5 -6 -11 -9 -6 -15 -14 -12 -20 3 -5 -1 -6 -9 -3
-14 6 -21 -5 -17 -28 0 -4 -7 -4 -16 -1 -11 4 -13 8 -5 11 7 2 12 8 12 14 0 7
-5 7 -12 1 -17 -12 -40 -11 -45 4 -3 7 3 10 15 6 25 -6 38 15 20 33 -12 12
-21 6 -66 -40 -48 -49 -52 -56 -40 -75 9 -16 10 -23 1 -32 -17 -17 -43 -3 -43
23 0 22 -36 55 -47 44 -3 -3 2 -8 11 -12 16 -6 16 -8 0 -25 -9 -11 -12 -19 -6
-19 6 0 12 6 15 13 2 6 8 8 13 4 4 -4 3 -17 -4 -27 -17 -28 -15 -53 3 -46 10
3 43 -22 95 -73 78 -78 114 -95 45 -23 -23 25 -33 43 -29 55 4 11 -1 24 -12
31 -18 13 -28 56 -13 56 4 0 12 -8 18 -17 9 -17 11 -16 28 6 27 36 53 62 100
100 l42 34 -36 44 c-19 23 -38 43 -42 42 -3 0 -14 -8 -24 -18z m-9 -114 c6 -5
12 -13 12 -19 0 -7 -5 -6 -14 1 -16 14 -25 4 -21 -21 4 -23 -11 -23 -19 -2 -4
9 -1 23 5 30 9 11 9 14 0 14 -6 0 -14 -6 -17 -13 -3 -8 -11 -14 -19 -14 -19 0
-19 2 1 22 16 15 48 16 72 2z m-53 -47 c-3 -5 -11 -10 -16 -10 -6 0 -7 5 -4
10 3 6 11 10 16 10 6 0 7 -4 4 -10z m-35 -50 c0 -5 -4 -10 -10 -10 -5 0 -10 5
-10 10 0 6 5 10 10 10 6 0 10 -4 10 -10z m13 -65 c-3 -9 -8 -14 -10 -11 -3 3
-2 9 2 15 9 16 15 13 8 -4z"/>
<path d="M456 1438 c5 -7 18 -21 31 -31 13 -10 23 -28 23 -39 0 -16 3 -18 13
-10 10 8 22 1 50 -28 34 -37 37 -38 47 -20 8 15 7 18 -2 15 -7 -3 -44 24 -83
60 -66 61 -96 81 -79 53z"/>
<path d="M570 1398 c6 -7 18 -13 28 -13 9 0 17 -8 17 -17 0 -9 3 -19 6 -23 5
-4 5 51 0 63 0 1 -9 -2 -19 -7 -12 -6 -23 -7 -30 -1 -9 7 -9 7 -2 -2z"/>
<path d="M724 1398 c-4 -5 -3 -12 0 -15 3 -4 6 -1 6 6 0 7 4 10 9 6 5 -3 12
-2 15 3 3 5 -2 9 -10 9 -8 0 -17 -4 -20 -9z"/>
<path d="M865 1390 c-3 -6 1 -7 9 -4 18 7 21 14 7 14 -6 0 -13 -4 -16 -10z"/>
<path d="M586 1266 c7 -19 52 -38 59 -26 4 6 1 10 -5 10 -6 0 -8 6 -4 13 4 6
4 9 0 5 -5 -4 -19 -3 -32 2 -17 7 -22 6 -18 -4z"/>
<path d="M831 1234 c0 -11 3 -14 6 -6 3 7 2 16 -1 19 -3 4 -6 -2 -5 -13z"/>
<path d="M562 1177 c-23 -23 -42 -45 -42 -49 0 -3 11 -5 25 -5 21 0 24 3 19
19 -5 17 -3 19 15 13 16 -5 20 -3 15 9 -3 9 -1 16 5 16 6 0 11 -5 11 -11 0 -6
7 -3 16 6 9 9 19 13 22 10 3 -3 0 -11 -6 -17 -14 -14 -16 -32 -2 -23 6 3 7 -1
4 -10 -5 -11 -10 -13 -19 -5 -8 7 -15 7 -19 1 -3 -5 0 -12 6 -14 7 -3 4 -6 -7
-6 -22 -1 -45 -19 -45 -34 0 -4 6 -5 13 -2 6 4 1 -2 -12 -13 -31 -25 -51 -18
-51 17 0 17 3 22 9 13 6 -10 10 -10 21 3 7 8 10 18 6 22 -3 3 -6 1 -6 -7 0
-10 -3 -10 -14 -1 -11 9 -19 9 -35 -1 -12 -7 -21 -15 -21 -18 1 -3 16 -22 34
-44 33 -38 34 -38 53 -20 11 11 45 43 77 73 55 51 57 55 40 68 -18 14 -18 15
-1 27 24 18 22 29 -3 14 -16 -10 -24 -10 -40 0 -11 6 -21 12 -23 12 -1 0 -22
-19 -45 -43z"/>
<path d="M830 1151 c0 -5 5 -13 10 -16 6 -3 10 -2 10 4 0 5 -4 13 -10 16 -5 3
-10 2 -10 -4z"/>
<path d="M715 1130 c-3 -5 -1 -10 4 -10 6 0 11 5 11 10 0 6 -2 10 -4 10 -3 0
-8 -4 -11 -10z"/>
<path d="M746 1102 c-3 -5 1 -9 9 -9 8 0 12 4 9 9 -3 4 -7 8 -9 8 -2 0 -6 -4
-9 -8z"/>
<path d="M436 1087 c3 -10 9 -15 12 -12 3 3 0 11 -7 18 -10 9 -11 8 -5 -6z"/>
<path d="M630 1039 c0 -5 -4 -7 -10 -4 -14 9 -12 -1 3 -13 10 -8 13 -6 14 9 1
10 0 19 -3 19 -2 0 -4 -5 -4 -11z"/>
<path d="M723 985 c0 -8 4 -12 9 -9 5 3 6 10 3 15 -9 13 -12 11 -12 -6z"/>
<path d="M753 985 c0 -8 4 -12 9 -9 5 3 6 10 3 15 -9 13 -12 11 -12 -6z"/>
<path d="M784 970 c0 -16 3 -27 6 -25 8 5 6 42 -1 50 -3 2 -5 -8 -5 -25z"/>
<path d="M1730 550 c0 -5 7 -10 16 -10 8 0 12 5 9 10 -3 6 -10 10 -16 10 -5 0
-9 -4 -9 -10z"/>
<path d="M1700 534 c0 -8 5 -12 10 -9 6 4 8 11 5 16 -9 14 -15 11 -15 -7z"/>
<path d="M1750 508 c-19 -22 -61 -58 -95 -81 -33 -22 -62 -42 -64 -44 -3 -2 5
-16 16 -31 11 -15 23 -37 27 -50 6 -18 4 -22 -13 -22 -24 0 -27 10 -9 28 8 8
8 12 1 12 -6 0 -16 13 -22 29 l-12 28 -75 -38 c-41 -22 -89 -39 -105 -39 -20
0 -28 -4 -23 -11 4 -7 21 -9 40 -6 19 3 32 2 29 -3 -8 -13 24 -20 66 -14 38 6
39 7 19 21 -23 17 -18 33 11 33 11 0 17 -4 14 -10 -3 -5 -1 -10 4 -10 14 0 14
6 0 33 l-12 22 24 -20 c13 -11 26 -21 29 -23 3 -2 -6 -11 -18 -21 -15 -11 -21
-23 -16 -34 7 -18 34 -24 34 -7 0 6 5 10 11 10 8 0 8 -4 0 -14 -6 -7 -12 -30
-13 -50 -1 -20 -5 -36 -10 -36 -4 0 -8 -6 -8 -14 0 -11 -8 -12 -37 -5 -42 9
-70 -5 -37 -18 32 -13 247 -10 251 4 3 8 -13 13 -49 15 -48 3 -53 5 -56 28 -2
14 -8 30 -14 37 -13 16 -2 33 22 33 26 0 31 13 24 59 -4 27 -12 41 -21 41 -9
0 -13 -6 -9 -15 3 -8 1 -15 -4 -15 -6 0 -10 7 -10 15 0 9 -6 18 -14 21 -9 3
-12 13 -8 27 l6 22 5 -23 c6 -25 23 -31 30 -11 2 7 -1 9 -8 5 -13 -8 -13 0 -1
29 7 18 8 18 15 -7 14 -54 55 -27 98 63 50 106 46 125 -13 57z m2 -40 c-7 -7
-12 -8 -12 -2 0 14 12 26 19 19 2 -3 -1 -11 -7 -17z m-12 -33 c0 -14 -12 -20
-33 -16 -5 1 -6 -8 -2 -19 7 -21 -10 -29 -17 -7 -7 18 2 37 18 37 8 0 14 5 14
10 0 6 5 10 10 10 6 0 10 -7 10 -15z m-242 -144 c11 -7 10 -10 -3 -15 -19 -7
-35 0 -35 15 0 11 20 12 38 0z m180 -19 c2 -7 -5 -12 -17 -12 -14 0 -19 5 -14
15 6 17 25 15 31 -3z m-45 -139 c-7 -2 -21 -2 -30 0 -10 3 -4 5 12 5 17 0 24
-2 18 -5z"/>
<path d="M1670 520 c-9 -6 -10 -10 -3 -10 6 0 15 5 18 10 8 12 4 12 -15 0z"/>
<path d="M1517 514 c-4 -4 -7 -16 -7 -26 0 -24 31 -23 53 2 13 16 14 20 3 20
-8 0 -21 2 -28 5 -8 3 -17 2 -21 -1z"/>
<path d="M1610 501 l-25 -7 30 -6 c17 -4 37 -9 46 -13 10 -3 16 -1 16 8 0 9
-8 12 -25 9 -17 -3 -23 -1 -18 7 4 6 6 11 4 10 -2 -1 -14 -4 -28 -8z"/>
<path d="M1630 460 c0 -5 5 -10 11 -10 5 0 7 5 4 10 -3 6 -8 10 -11 10 -2 0
-4 -4 -4 -10z"/>
<path d="M1503 422 c-2 -35 -2 -36 12 -18 18 24 19 31 3 44 -10 8 -14 2 -15
-26z"/>
<path d="M1541 453 c-1 -18 19 -67 25 -61 3 3 -2 21 -10 39 -8 19 -15 29 -15
22z"/>
<path d="M1570 436 c0 -2 7 -6 15 -10 8 -3 15 -1 15 4 0 6 -7 10 -15 10 -8 0
-15 -2 -15 -4z"/>
<path d="M1473 409 c-6 -6 -9 -18 -6 -25 3 -8 1 -14 -5 -14 -6 0 -12 4 -14 10
-1 5 -16 -1 -32 -15 -16 -14 -24 -25 -17 -25 7 0 19 7 27 15 8 8 21 12 29 9
10 -4 18 4 25 21 12 31 9 40 -7 24z"/>
<path d="M1490 369 c0 -5 5 -7 10 -4 6 3 10 8 10 11 0 2 -4 4 -10 4 -5 0 -10
-5 -10 -11z"/>
<path d="M1370 320 c0 -5 5 -10 10 -10 6 0 10 5 10 10 0 6 -4 10 -10 10 -5 0
-10 -4 -10 -10z"/>
</g>
</svg>
