<svg version="1.0" xmlns="http://www.w3.org/2000/svg" width="250.000000pt" height="88.000000pt" viewBox="0 0 250.000000 88.000000" preserveAspectRatio="xMidYMid meet" style="width: 233px; height: auto;"> <g transform="translate(0.000000,88.000000) scale(0.100000,-0.100000)" fill="#000000" stroke="none" class=""> <path d="M643 790 c0 -41 2 -58 4 -37 2 20 2 54 0 75 -2 20 -4 3 -4 -38z"></path> <path d="M255 725 c-18 -39 -23 -61 -16 -68 11 -11 20 4 30 57 l7 31 17 -34 c9 -18 14 -37 11 -42 -3 -5 7 -9 21 -9 23 0 25 2 12 15 -9 8 -21 32 -27 52 -19 60 -27 59 -55 -2z"></path> <path d="M1000 750 c0 -5 5 -10 10 -10 6 0 10 5 10 10 0 6 -4 10 -10 10 -5 0 -10 -4 -10 -10z" stroke-width="1"></path> <path d="M2200 740 c0 -13 18 -22 24 -11 3 5 -1 11 -9 15 -8 3 -15 1 -15 -4z"></path> <path d="M165 680 c-3 -5 -1 -10 4 -10 6 0 11 5 11 10 0 6 -2 10 -4 10 -3 0 -8 -4 -11 -10z"></path> <path d="M370 672 c0 -9 39 -12 135 -12 l135 0 0 -135 0 -135 255 0 255 0 0 -131 0 -131 -385 3 c-252 3 -385 1 -385 -6 0 -6 135 -11 381 -13 343 -2 383 -4 394 -19 11 -14 16 -15 44 -3 36 15 78 61 87 96 5 19 9 22 24 14 22 -12 46 -4 54 17 5 12 26 14 141 7 l135 -7 0 52 0 51 73 0 c70 -1 71 -1 51 -18 -12 -9 -30 -22 -40 -29 -18 -11 -18 -12 4 -12 14 -1 36 11 52 29 19 21 37 30 59 30 42 0 39 -18 -5 -36 -52 -22 -37 -27 46 -15 87 12 176 53 198 91 14 24 21 27 50 23 28 -5 34 -2 39 16 5 19 12 21 79 21 43 0 74 4 74 10 0 6 -31 10 -74 10 -55 0 -77 4 -87 16 -7 9 -21 13 -34 10 -16 -4 -25 2 -40 30 -22 42 -57 69 -116 89 -45 16 -159 28 -159 17 0 -4 15 -16 33 -27 l32 -19 -33 -4 c-25 -3 -39 3 -63 27 -29 30 -69 42 -69 21 0 -5 6 -10 14 -10 8 0 24 -9 37 -20 l24 -19 -72 -1 -73 0 0 60 0 60 -267 0 c-148 0 -433 3 -635 7 -277 5 -368 3 -368 -5z m923 -22 l327 0 0 -60 0 -60 85 0 c84 0 85 0 92 -27 10 -36 10 -123 1 -145 -6 -15 -21 -18 -93 -18 l-85 0 0 -50 0 -51 -127 7 c-94 5 -130 11 -136 21 -5 8 -20 13 -34 11 -23 -3 -27 2 -39 42 -16 54 -56 95 -101 105 -27 5 -33 4 -33 -10 0 -13 -6 -16 -22 -11 -13 3 -125 6 -250 6 l-228 0 1 127 1 126 157 -6 c86 -4 303 -7 484 -7z m695 -97 c56 -26 77 -50 92 -103 18 -62 -60 -137 -163 -155 l-38 -7 20 38 c15 27 21 57 21 101 0 61 -23 143 -41 143 -5 0 -9 5 -9 11 0 15 54 3 118 -28z m-92 -69 c6 -42 0 -126 -10 -143 -3 -4 -21 -5 -41 -3 -32 4 -35 7 -28 26 10 27 10 103 0 139 -7 26 -6 27 32 27 40 0 40 0 47 -46z m254 -49 c15 -18 5 -35 -21 -35 -12 0 -19 7 -19 18 0 33 20 42 40 17z m-943 -45 c66 -40 89 -136 51 -209 -21 -41 -72 -91 -82 -80 -6 6 -12 309 -6 309 3 0 19 -9 37 -20z m138 -154 c0 -22 -14 -29 -34 -17 -19 12 -6 43 16 39 10 -2 18 -12 18 -22z" stroke-width="1" class=""></path> <path d="M1040 570 c0 -5 5 -10 11 -10 5 0 7 5 4 10 -3 6 -8 10 -11 10 -2 0 -4 -4 -4 -10z"></path> <path d="M1590 505 c-7 -9 -8 -15 -2 -15 5 0 12 7 16 15 3 8 4 15 2 15 -2 0 -9 -7 -16 -15z"></path> <path d="M1947 494 c-7 -7 6 -114 14 -114 5 0 9 9 9 21 0 11 4 17 10 14 16 -10 40 14 40 41 0 12 -6 26 -12 31 -12 7 -56 12 -61 7z m51 -42 c2 -15 -2 -22 -12 -22 -11 0 -16 9 -16 26 0 31 23 28 28 -4z"></path> <path d="M356 631 c-4 -7 -5 -15 -2 -18 9 -9 19 4 14 18 -4 11 -6 11 -12 0z"></path> <path d="M2208 588 c15 -15 16 -75 1 -84 -8 -4 -7 -9 2 -15 28 -18 39 -10 32 22 -5 29 -4 31 16 24 16 -5 21 -2 21 10 0 12 -6 15 -20 10 -16 -5 -20 -2 -20 14 0 23 19 28 38 9 9 -9 12 -8 12 5 0 14 -9 17 -47 17 -37 0 -44 -3 -35 -12z"></path> <path d="M2106 547 c3 -10 9 -15 12 -12 3 3 0 11 -7 18 -10 9 -11 8 -5 -6z"></path>  <path d="M2310 495 c0 -8 5 -15 10 -15 6 0 10 7 10 15 0 8 -4 15 -10 15 -5 0 -10 -7 -10 -15z"></path>   <path d="M171 224 c0 -11 3 -14 6 -6 3 7 2 16 -1 19 -3 4 -6 -2 -5 -13z"></path> <path d="M235 164 c0 -65 3 -68 57 -58 30 6 44 30 27 50 -6 7 -8 17 -5 23 13 20 -7 39 -42 43 l-37 3 0 -61z m54 37 c16 -10 6 -31 -15 -31 -8 0 -14 9 -14 20 0 22 7 25 29 11z m9 -64 c2 -12 -3 -17 -17 -17 -15 0 -21 6 -21 21 0 25 33 22 38 -4z"></path> <path d="M347 183 c-4 -3 -7 -11 -7 -17 0 -6 5 -5 12 2 6 6 9 14 7 17 -3 3 -9 2 -12 -2z"></path>  <path d="M1360 90 c0 -5 5 -10 10 -10 6 0 10 5 10 10 0 6 -4 10 -10 10 -5 0 -10 -4 -10 -10z"></path>     <path d="M1158 3 c7 -3 16 -2 19 1 4 3 -2 6 -13 5 -11 0 -14 -3 -6 -6z"></path> </g> </svg>