<?xml version="1.0" standalone="no"?>
<!DOCTYPE svg PUBLIC "-//W3C//DTD SVG 20010904//EN"
 "http://www.w3.org/TR/2001/REC-SVG-20010904/DTD/svg10.dtd">
<svg version="1.0" xmlns="http://www.w3.org/2000/svg"
 width="133.000000pt" height="76.000000pt" viewBox="0 0 133.000000 76.000000"
 preserveAspectRatio="xMidYMid meet">
<g transform="translate(0.000000,76.000000) scale(0.100000,-0.100000)"
fill="#000000" stroke="none">
<path d="M1031 723 c-1 -16 -37 -53 -50 -53 -5 0 -12 8 -14 18 -3 11 -5 9 -6
-8 -1 -17 -13 -32 -35 -47 -32 -21 -34 -21 -29 -2 3 10 1 19 -5 19 -5 0 -13
-12 -17 -27 -11 -44 -25 -57 -41 -36 -12 17 -13 16 -14 -7 -1 -29 -50 -73 -50
-45 0 8 -5 15 -11 15 -6 0 -8 -9 -4 -21 5 -16 -2 -28 -32 -54 -21 -19 -43 -34
-50 -35 -16 0 -85 69 -78 80 3 5 1 11 -5 15 -5 3 -10 -1 -10 -10 0 -23 -19 -8
-31 23 -7 18 -12 23 -18 14 -9 -15 -23 -2 -35 33 -5 15 -9 16 -15 6 -7 -11
-12 -11 -30 0 -11 8 -21 19 -21 26 0 7 -4 13 -10 13 -5 0 -10 -4 -10 -10 0
-16 -32 -11 -46 8 -13 16 -13 16 -14 0 0 -21 -33 -24 -75 -8 -20 8 -26 7 -23
-2 3 -7 15 -15 27 -16 13 -2 25 -12 28 -22 4 -16 9 -17 28 -8 29 13 68 2 45
-12 -23 -14 -4 -23 20 -10 18 10 25 9 38 -4 11 -10 12 -16 4 -16 -7 0 -12 -5
-12 -11 0 -6 9 -9 20 -6 23 6 49 -18 28 -26 -7 -3 -1 -6 14 -6 33 -1 44 -16
20 -27 -14 -6 -12 -8 12 -13 30 -6 49 -31 23 -31 -8 0 -39 -24 -69 -52 -100
-97 -128 -242 -64 -323 21 -26 28 -28 89 -28 47 1 80 8 116 25 31 15 55 21 64
16 8 -4 46 -11 85 -14 62 -6 75 -4 106 16 117 72 86 281 -50 341 -24 11 -44
22 -44 25 0 20 25 44 45 44 14 0 25 5 25 11 0 7 -9 9 -21 6 -19 -5 -19 -4 -6
16 9 15 27 23 51 25 41 4 50 22 9 22 l-26 0 23 20 c13 11 39 21 59 21 20 1 28
3 19 6 -10 2 -18 8 -18 13 0 13 27 19 67 14 l38 -4 -30 14 c-27 13 -28 15 -11
22 10 4 33 2 49 -4 17 -6 33 -10 35 -7 9 9 -10 25 -31 26 -19 0 -19 2 6 11 33
12 36 31 3 22 -18 -4 -25 -1 -29 13 -3 10 -5 12 -6 6z m-496 -197 c22 -17 59
-48 82 -68 24 -21 49 -38 57 -38 9 0 41 24 72 53 81 75 92 77 45 9 -22 -34
-41 -63 -41 -66 0 -2 17 -10 38 -17 58 -19 86 -43 115 -103 72 -147 -6 -256
-167 -232 -25 4 -52 14 -60 22 -13 12 -18 11 -42 -11 -15 -14 -37 -25 -50 -25
-12 0 -26 -4 -29 -10 -12 -20 -92 -11 -120 12 -71 63 -32 241 70 321 20 16 44
30 53 32 9 2 19 4 22 5 3 1 8 2 13 1 19 -3 1 19 -80 97 -64 63 -78 80 -52 67
19 -10 52 -32 74 -49z"/>
</g>
</svg>
