<?xml version="1.0" standalone="no"?>
<!DOCTYPE svg PUBLIC "-//W3C//DTD SVG 20010904//EN"
 "http://www.w3.org/TR/2001/REC-SVG-20010904/DTD/svg10.dtd">
<svg version="1.0" xmlns="http://www.w3.org/2000/svg"
 width="1524.000000pt" height="216.000000pt" viewBox="0 0 1524.000000 216.000000"
 preserveAspectRatio="xMidYMid meet">
<g transform="translate(0.000000,216.000000) scale(0.100000,-0.100000)"
fill="#000000" stroke="none">
<path d="M7355 1579 c-16 -4 -47 -12 -69 -18 l-39 -10 -42 -41 c-23 -23 -52
-61 -64 -84 l-21 -43 0 -73 0 -72 35 -58 34 -57 61 -31 60 -32 64 0 65 0 13
13 c7 6 30 21 51 31 37 19 73 67 60 80 -13 12 -34 6 -61 -19 l-26 -24 -44 -7
c-24 -4 -63 -4 -88 0 l-44 6 -20 20 c-11 11 -26 36 -35 56 l-15 36 0 68 0 68
16 38 c9 21 28 50 43 63 l26 25 66 0 66 0 30 -24 c17 -14 35 -38 41 -53 l11
-29 13 4 13 5 3 64 c1 35 -2 71 -8 79 l-9 15 -18 -11 -18 -11 -35 5 c-19 2
-39 8 -45 12 -20 14 -40 16 -70 9z"/>
<path d="M7805 1570 c-3 -5 -19 -10 -35 -10 l-28 0 -54 -52 -53 -53 -19 -53
-19 -54 6 -46 c12 -101 62 -173 150 -217 l49 -25 54 0 53 0 40 21 c47 24 99
72 126 114 l19 30 4 86 4 85 -20 40 c-11 22 -41 59 -66 82 l-46 42 -29 0 c-16
0 -33 5 -36 10 -3 6 -26 10 -50 10 -24 0 -47 -4 -50 -10z m105 -59 l25 -7 30
-44 30 -45 0 -100 0 -100 -29 -37 -28 -38 -38 -11 -38 -12 -35 7 c-19 4 -46
16 -60 26 l-26 20 -15 54 c-56 192 32 329 184 287z"/>
<path d="M6404 1399 c-9 -16 9 -30 53 -40 21 -4 59 -13 86 -19 l47 -12 0 -17
0 -17 -59 -37 c-105 -68 -223 -202 -260 -297 -8 -19 -22 -53 -31 -75 -24 -54
-40 -127 -40 -178 0 -23 -4 -48 -9 -56 l-9 -13 -180 5 -181 5 -20 -15 c-26
-17 -27 -35 -3 -55 l17 -15 1155 -1 c635 -1 1230 2 1323 6 217 9 211 12 146
-70 -73 -93 -92 -142 -58 -153 l21 -7 86 86 c48 48 112 104 142 125 30 20 56
44 58 53 l3 16 -36 22 c-53 32 -81 57 -167 143 l-78 78 -18 -3 -17 -4 1 -29
c1 -31 46 -106 83 -139 12 -11 21 -28 21 -39 l0 -20 -67 7 c-38 4 -531 7
-1097 7 l-1029 1 6 77 c3 43 10 86 15 97 6 10 18 37 27 59 9 22 26 60 38 84
27 54 160 208 193 223 13 6 24 15 24 20 0 4 7 8 15 8 20 0 19 -18 -3 -60 -11
-19 -22 -47 -26 -62 l-6 -28 18 0 19 0 29 42 c16 23 36 50 44 59 8 9 33 40 55
68 43 56 62 79 101 124 l26 29 -6 14 -5 14 -220 0 -220 0 -7 -11z"/>
<path d="M8175 1300 c-16 -11 -33 -31 -37 -45 l-6 -25 12 0 c7 0 27 5 44 11
l31 10 20 -11 21 -11 0 -30 c0 -43 -24 -84 -87 -146 l-55 -55 6 -14 6 -15 102
3 103 3 3 33 3 32 -20 0 c-11 0 -23 -4 -26 -10 -6 -11 -75 -14 -75 -4 0 3 20
29 45 57 25 29 45 57 45 64 0 7 4 13 10 13 5 0 12 15 16 34 l6 35 -17 29 c-36
59 -97 77 -150 42z"/>
<path d="M2073 1124 c-44 -22 -110 -97 -118 -133 l-6 -30 15 -29 16 -30 -13
-4 c-6 -2 -142 -3 -302 -1 -159 1 -315 3 -346 3 l-56 0 -7 39 -6 40 -37 30
c-47 39 -85 46 -167 32 l-64 -11 -26 11 -26 12 0 33 0 32 -15 6 -15 5 -16 -24
-16 -24 7 -30 6 -30 31 -26 c16 -14 37 -25 47 -25 9 0 22 -5 28 -11 l11 -11
44 6 c23 4 60 9 82 12 l38 6 24 -13 c29 -15 31 -44 5 -59 l-20 -10 -133 1
c-73 0 -153 4 -178 7 l-44 7 -10 33 -9 33 -16 -3 -16 -3 -3 -48 c-2 -26 -5
-47 -6 -47 -2 0 -17 7 -32 15 -16 8 -41 15 -57 15 l-27 0 -11 27 c-11 29 -26
43 -47 43 l-14 0 8 -92 7 -91 -51 51 -50 51 -45 6 c-94 14 -206 -44 -222 -116
l-6 -28 11 -20 c12 -23 41 -27 69 -9 43 27 70 -22 31 -57 -29 -26 -25 -42 16
-61 l37 -18 74 78 74 77 16 -3 16 -3 13 -38 13 -38 -10 -113 -11 -114 18 -27
17 -26 26 3 26 3 0 220 0 220 43 -1 42 -1 15 -19 14 -19 1 -196 0 -197 26 -17
26 -17 10 10 10 10 -1 226 c-1 124 2 226 6 226 139 7 192 7 202 0 16 -9 6 -30
-14 -30 -18 0 -75 -67 -75 -89 0 -78 131 -73 155 7 l6 22 25 0 24 0 17 -35 17
-35 -23 -23 c-12 -13 -39 -30 -60 -37 l-39 -12 -33 5 c-19 3 -49 9 -68 13
l-34 7 6 -32 c4 -17 16 -45 29 -61 l22 -30 19 0 c10 0 31 -6 45 -14 15 -8 49
-25 75 -37 27 -13 74 -47 105 -77 83 -78 102 -85 102 -36 l0 22 -29 28 c-40
40 -57 54 -118 95 l-54 36 41 28 c23 16 48 38 56 49 l14 20 0 56 0 55 -33 36
c-19 20 -44 40 -56 44 -12 4 -20 12 -18 18 l4 12 46 0 c26 -1 130 -2 232 -3
l185 -2 0 -10 c0 -5 -12 -13 -27 -16 -16 -4 -37 -13 -48 -20 -11 -8 -25 -14
-32 -14 -16 0 -127 -67 -146 -88 l-16 -17 37 -43 37 -42 21 0 c63 0 143 -62
184 -144 52 -102 69 -75 62 102 l-5 135 37 -28 36 -27 44 -5 44 -5 26 25 26
26 0 41 0 41 -30 29 -31 30 -43 0 -44 0 -16 -25 -16 -24 10 -26 10 -25 28 0
c15 0 33 5 40 12 17 17 26 3 18 -27 l-6 -25 -28 0 -27 0 -37 33 -38 34 0 50 0
51 78 3 c42 2 113 2 157 -1 l80 -5 -3 -205 -3 -205 25 -24 25 -24 15 12 14 12
-5 218 -6 218 122 2 121 1 0 -9 c0 -5 -9 -15 -20 -22 l-21 -14 -6 -37 -6 -37
36 -36 35 -35 60 0 60 0 30 25 c78 66 98 -30 21 -100 l-39 -35 -46 0 -47 0
-36 22 c-57 35 -141 139 -141 175 0 6 -10 28 -21 48 l-22 36 -10 -10 -10 -10
18 -58 c84 -271 254 -372 397 -235 l37 35 12 53 12 53 -12 43 c-12 44 -68 118
-88 118 -6 0 -29 -20 -51 -45 -42 -48 -52 -48 -52 -2 0 17 -7 39 -17 49 -9 10
-14 20 -12 23 7 6 500 8 506 1 9 -9 -8 -26 -26 -26 -10 0 -24 -7 -31 -15 -7
-8 -20 -15 -29 -16 -21 -1 -131 -70 -144 -91 l-10 -16 30 -38 31 -39 45 -13
46 -14 39 -36 c44 -42 66 -75 76 -115 l7 -28 17 3 17 3 1 170 c0 94 1 176 2
183 l2 14 33 -7 c33 -8 56 -26 76 -62 16 -31 14 -33 -18 -33 l-30 0 -20 -26
c-27 -35 -27 -40 8 -75 38 -38 55 -37 98 6 l35 35 -4 55 -5 55 -30 38 c-16 20
-44 46 -61 57 -47 30 -40 34 66 37 l97 3 -3 20 c-2 11 -9 26 -15 34 l-11 13
-561 -3 -560 -4 -3 37 -3 36 44 46 44 46 66 0 c76 0 102 -9 173 -62 28 -21 58
-38 67 -38 l16 0 -6 18 c-12 34 -135 132 -167 132 -6 0 -17 5 -23 11 -6 6 -40
13 -75 15 l-63 5 -32 -17z m-1605 -312 c2 -7 -13 -28 -33 -47 l-36 -35 -30 29
c-47 48 -29 73 50 68 l44 -2 5 -13z m1156 -117 c-1 -22 -2 -61 -3 -87 l-1 -48
-13 0 c-8 0 -24 12 -38 26 -13 14 -41 35 -61 47 -50 27 -48 38 12 65 27 12 52
27 56 33 3 6 16 9 27 7 l22 -3 -1 -40z m1250 0 c-5 -147 -1 -141 -54 -92 -20
17 -46 39 -59 47 l-23 16 53 36 c30 20 61 35 69 34 l15 -1 -1 -40z"/>
<path d="M4520 1120 c-43 -24 -93 -78 -110 -121 l-14 -32 18 -30 c22 -39 12
-47 -47 -40 l-47 6 -8 31 -8 31 -15 0 -14 0 -2 -40 c-1 -22 -2 -46 -2 -53 l-1
-13 -26 20 -25 20 -435 0 -435 0 -6 -16 -7 -17 12 -4 c25 -8 41 -33 51 -81 30
-141 154 -281 249 -281 l39 0 37 25 36 24 16 -6 c9 -3 35 -44 56 -90 l40 -84
13 11 14 11 -6 213 -6 213 13 8 c15 9 159 9 168 0 3 -2 -3 -23 -14 -46 l-18
-42 1 -56 c1 -31 7 -69 12 -85 6 -15 11 -49 11 -76 l0 -48 -34 -30 c-19 -16
-40 -32 -47 -34 l-13 -4 7 -17 6 -17 34 0 34 0 48 46 48 45 -6 88 c-3 48 -11
115 -18 148 l-12 60 12 31 c15 36 39 46 86 38 l33 -7 16 -24 16 -24 0 -189 0
-190 13 -10 c6 -5 21 -12 32 -14 l20 -3 0 230 0 230 58 3 57 3 0 -214 0 -213
12 -12 c7 -7 23 -12 36 -12 l23 0 -3 223 -3 222 28 3 28 3 24 -15 c13 -9 41
-16 61 -16 l36 0 29 -31 29 -31 0 -24 c0 -13 -3 -24 -7 -24 -5 0 -17 -14 -28
-30 l-20 -30 -22 0 -22 0 -6 21 -7 20 -16 -3 -17 -3 -3 -28 -3 -27 39 -40 39
-40 20 0 c20 0 93 65 93 83 0 5 14 27 31 48 l31 39 22 0 c13 0 30 -8 39 -18
l17 -19 0 -126 0 -126 16 -15 c8 -9 24 -16 35 -16 l20 0 -7 220 -7 219 17 7
c9 3 31 3 49 0 l32 -6 1 -75 0 -75 12 -12 c7 -7 12 -18 12 -26 0 -49 86 -167
136 -188 196 -82 340 123 211 299 l-21 27 -20 0 -21 -1 -23 -37 c-13 -21 -33
-44 -44 -51 l-21 -13 -9 14 c-5 7 -6 26 -3 42 3 16 5 46 5 68 l0 39 139 -2
c76 -1 143 1 149 5 l10 6 -11 25 c-18 38 -18 38 -566 32 -280 -2 -513 -2 -518
2 -34 22 -19 80 34 128 l36 33 62 0 63 0 37 -16 c20 -8 42 -19 49 -25 6 -5 27
-23 46 -39 42 -36 50 -37 50 -7 l0 23 -27 26 c-16 14 -41 34 -58 44 -16 10
-36 24 -43 31 -7 7 -19 13 -27 13 -7 0 -26 7 -41 15 l-29 15 -50 -1 -50 0 -35
-19z m-956 -299 c3 -5 -1 -14 -9 -21 -21 -17 -19 -52 5 -78 l21 -22 38 0 38 0
18 21 19 20 18 -23 c10 -13 18 -35 18 -50 l0 -27 -31 -22 -31 -22 -28 1 c-56
1 -170 102 -170 149 0 7 -7 25 -16 38 -9 13 -13 29 -9 35 8 12 112 14 119 1z
m266 -102 l0 -111 -12 4 -13 5 -5 44 c-7 59 -34 115 -65 135 -39 25 -30 34 35
34 l60 0 0 -111z m1100 56 c0 -62 -4 -66 -33 -29 l-20 26 -44 -6 -43 -6 0 14
c0 7 -7 19 -15 26 -29 24 -14 30 70 30 l85 0 0 -55z m300 -28 l0 -82 19 -35
18 -35 31 -3 31 -3 54 40 c58 42 67 43 67 3 l0 -24 -39 -39 -39 -39 -48 0 -49
0 -26 18 c-51 34 -88 89 -106 157 -37 135 -40 125 34 125 l53 0 0 -83z"/>
<path d="M12712 1114 l-22 -15 0 -24 c0 -13 4 -34 9 -47 8 -22 22 -31 103 -68
l27 -13 43 7 c24 4 58 10 76 13 l34 5 24 -12 c30 -17 31 -46 2 -61 l-22 -12
-142 7 c-178 7 -215 -5 -147 -49 l26 -17 63 5 63 5 12 -14 11 -14 -18 -6 c-11
-4 -34 -21 -51 -37 l-33 -31 0 -23 c0 -13 9 -32 20 -43 l20 -20 33 0 33 0 19
23 c11 12 25 31 30 42 6 11 19 21 29 23 l19 4 18 -23 c57 -74 -69 -148 -176
-103 -40 16 -65 13 -65 -9 0 -23 59 -107 75 -107 18 0 159 -64 181 -83 9 -6
41 -36 72 -65 60 -55 76 -62 86 -35 l7 16 -27 40 c-14 22 -34 42 -45 44 -10 3
-19 9 -19 13 0 4 -27 25 -60 47 l-59 40 44 32 c55 39 67 60 67 117 l0 45 -17
25 c-24 37 -50 61 -74 69 -23 7 -27 20 -11 30 6 4 54 4 106 0 l94 -7 -6 -33
-6 -33 17 -26 17 -26 33 0 34 0 16 17 17 16 -5 34 -6 33 19 10 c44 23 100 6
100 -31 0 -45 -94 -109 -160 -109 l-31 0 -6 -16 -6 -15 31 -42 30 -42 51 -6
50 -7 16 -16 c9 -9 20 -16 24 -16 13 0 81 -65 81 -77 0 -15 44 -63 58 -63 15
0 15 -11 16 235 l1 210 49 -1 48 0 19 -25 19 -24 0 -192 0 -192 30 -21 c38
-27 35 -45 35 225 l0 230 180 0 180 0 3 -79 3 -79 -9 -9 -10 -10 -18 32 c-24
39 -99 90 -134 90 -33 0 -90 -37 -108 -70 l-13 -25 5 -39 5 -40 23 -18 23 -18
38 0 39 0 19 23 c21 25 24 58 8 74 -15 15 -2 33 19 26 63 -22 132 -162 132
-267 l0 -34 13 -5 c8 -3 19 -2 25 2 l11 6 -2 220 -2 220 203 3 202 2 6 -15 c4
-8 3 -23 -1 -32 l-6 -18 -12 16 c-7 9 -21 19 -32 22 l-20 7 -25 -15 c-14 -8
-31 -17 -38 -21 l-13 -6 -18 16 -18 17 -47 1 -47 1 -20 -19 c-12 -11 -28 -32
-36 -48 l-15 -30 6 -50 6 -50 26 -25 27 -25 58 -4 57 -4 21 21 c26 26 26 37 1
79 l-20 32 -30 0 -31 0 -17 -30 c-21 -36 -36 -34 -40 6 l-3 30 25 27 25 27 30
0 29 0 40 -45 c42 -47 52 -48 52 -5 0 15 6 33 14 39 l15 12 20 -10 c11 -6 24
-19 30 -28 l9 -17 -5 -135 -5 -136 25 -24 26 -24 15 6 16 6 0 225 0 225 52 3
c58 3 67 14 38 46 l-21 22 -498 0 -499 0 -9 38 -9 37 -14 0 -15 0 -3 -59 -3
-58 -19 17 -19 17 -53 7 -52 6 -11 39 c-12 41 -32 57 -45 37 -4 -7 -5 -99 -2
-206 3 -106 2 -205 -2 -219 l-7 -27 -37 29 c-20 16 -45 32 -54 35 -22 8 -24
43 -3 50 8 4 28 25 45 48 l30 42 0 29 c0 35 -25 85 -54 110 l-21 17 -62 1 -61
0 -30 -17 -30 -17 -20 17 c-10 9 -32 17 -48 17 -40 0 -50 9 -58 52 l-7 37 -37
31 c-45 37 -86 45 -165 33 l-62 -10 -28 10 -28 9 3 36 3 35 -10 4 c-6 2 -20
-4 -33 -13z"/>
<path d="M8969 871 c-5 -31 -2 -36 21 -41 l25 -6 7 -79 c5 -44 5 -135 2 -202
l-6 -122 -29 -10 c-35 -12 -37 -26 -6 -35 29 -8 161 -8 181 0 26 10 18 32 -14
39 l-30 7 0 79 0 79 61 0 60 0 40 23 39 22 20 41 c25 51 25 67 -1 118 l-21 41
-36 24 -36 23 -138 5 -138 5 -1 -11z m255 -84 l26 -34 0 -32 0 -32 -22 -29
-22 -30 -43 0 -43 0 0 95 0 95 39 0 40 0 25 -33z"/>
<path d="M12050 845 c0 -24 27 -73 76 -138 24 -33 41 -64 38 -69 l-7 -10 -76
6 c-42 4 -635 7 -1319 8 l-1244 1 -16 -16 -16 -16 12 -27 12 -26 1330 4 c732
1 1330 0 1330 -3 0 -3 -11 -19 -25 -35 -75 -87 -110 -175 -71 -182 l19 -4 81
84 c90 92 143 138 163 138 16 0 36 37 29 55 -3 8 -24 26 -47 41 -23 14 -82 66
-132 115 l-91 89 -23 0 -23 0 0 -15z"/>
<path d="M1452 507 c-27 -29 -27 -38 -1 -71 l20 -26 23 0 c30 0 56 30 56 63
l0 26 -22 15 c-31 22 -51 20 -76 -7z"/>
</g>
</svg>
