<?xml version="1.0" standalone="no"?>
<!DOCTYPE svg PUBLIC "-//W3C//DTD SVG 20010904//EN"
 "http://www.w3.org/TR/2001/REC-SVG-20010904/DTD/svg10.dtd">
<svg version="1.0" xmlns="http://www.w3.org/2000/svg"
 width="752.000000pt" height="430.000000pt" viewBox="0 0 752.000000 430.000000"
 preserveAspectRatio="xMidYMid meet">
<g transform="translate(0.000000,430.000000) scale(0.100000,-0.100000)"
fill="#000000" stroke="none">
<path d="M450 4086 c0 -9 12 -16 32 -18 54 -5 58 -24 57 -289 0 -262 -4 -279
-60 -279 -19 0 -29 -5 -29 -15 0 -13 30 -15 233 -13 l232 3 26 75 c15 41 25
78 22 83 -9 16 -23 5 -48 -37 -41 -70 -59 -77 -178 -74 l-102 3 -6 115 c-3 63
-2 119 2 124 5 5 43 8 86 7 83 -3 109 -15 115 -55 2 -11 8 -21 13 -21 6 0 11
43 13 103 2 81 0 103 -10 100 -7 -3 -14 -14 -16 -25 -6 -40 -32 -52 -120 -54
-45 -1 -84 0 -85 2 -1 2 -1 55 1 117 l4 112 109 0 109 0 20 -32 c11 -18 20
-41 20 -51 0 -12 6 -17 18 -15 9 2 17 9 16 16 -1 6 -2 39 -2 72 l-2 60 -235 0
c-198 0 -235 -2 -235 -14z"/>
<path d="M1637 3950 c-3 -8 -13 -44 -22 -80 -26 -100 -112 -375 -123 -396 -6
-11 -27 -64 -47 -119 -20 -55 -40 -108 -45 -117 -6 -11 -6 -19 2 -24 11 -7 28
9 133 128 28 31 57 58 64 60 11 2 13 -239 12 -1478 -1 -1288 0 -1483 13 -1493
11 -10 378 -12 1630 -11 888 0 1617 -3 1620 -8 2 -4 -26 -32 -64 -60 -89 -69
-140 -116 -140 -130 0 -14 14 -15 38 -3 50 28 380 137 611 203 63 18 115 37
115 42 1 5 -21 15 -49 24 -178 53 -607 200 -645 221 -9 5 -30 12 -48 16 -49
10 -35 -8 83 -110 57 -49 100 -93 97 -97 -4 -4 -313 -9 -687 -10 -647 -3 -680
-2 -666 15 9 9 22 17 31 17 21 0 136 42 190 70 161 82 393 286 522 460 243
328 424 737 538 1215 12 50 27 104 33 122 9 27 8 35 -8 53 -10 11 -28 20 -40
20 -25 0 -55 -29 -55 -52 0 -34 -53 -248 -96 -386 -229 -739 -634 -1262 -1099
-1420 -141 -47 -322 -60 -460 -33 -425 85 -834 503 -1100 1125 -75 176 -157
423 -196 587 -15 64 -28 99 -44 114 l-23 21 -4 482 c-2 265 0 482 3 482 3 0
47 -43 97 -95 51 -52 96 -95 102 -95 13 0 13 15 1 38 -11 20 -61 148 -61 156
0 3 -13 34 -29 69 -32 70 -141 400 -141 428 0 9 -9 27 -19 40 -15 19 -21 21
-24 9z m84 -1786 c5 -6 19 -47 30 -90 117 -448 366 -907 646 -1191 161 -163
318 -270 481 -326 47 -16 91 -34 97 -41 9 -8 -149 -10 -624 -8 -349 2 -636 4
-637 5 -1 1 -4 384 -6 851 -1 467 -1 841 1 830 2 -10 7 -24 12 -30z"/>
<path d="M1022 3745 c-44 -24 -48 -33 -24 -55 20 -19 22 -30 22 -143 0 -141
-4 -163 -32 -170 -40 -11 -6 -27 56 -27 72 0 86 8 56 30 -11 8 -23 32 -27 53
-5 32 -3 37 13 37 26 -1 74 -72 67 -99 -5 -20 -1 -21 61 -21 52 0 66 3 66 15
0 8 -8 15 -17 15 -9 0 -43 28 -76 62 l-59 63 46 42 c26 23 58 43 72 45 46 6
30 23 -25 26 -67 4 -88 -3 -72 -22 10 -11 4 -23 -25 -55 -21 -22 -41 -38 -45
-35 -5 3 -6 61 -2 129 6 119 5 125 -13 124 -10 -1 -30 -7 -42 -14z"/>
<path d="M5595 811 c-3 -6 -19 -11 -34 -11 -28 0 -67 -31 -54 -43 3 -4 17 -7
29 -7 16 0 25 -7 29 -22 3 -13 4 -133 3 -268 l-3 -245 -29 -14 c-27 -13 -28
-15 -12 -27 17 -12 17 -13 -2 -23 -24 -13 -87 -96 -96 -128 -7 -22 -5 -23 61
-23 64 0 72 2 98 30 37 39 105 70 153 70 51 0 151 -33 211 -70 33 -21 61 -30
90 -30 22 0 41 3 40 8 -1 13 -126 115 -169 137 -32 16 -39 23 -26 28 9 4 22 4
30 1 8 -3 17 -1 21 5 3 6 -5 15 -18 20 -13 5 -27 17 -31 26 -3 9 -6 81 -6 160
l0 144 -31 36 c-43 49 -89 49 -146 0 -23 -19 -44 -35 -48 -35 -4 0 -5 64 -3
143 l3 142 -27 3 c-14 2 -29 -2 -33 -7z m189 -297 c12 -12 16 -38 16 -112 0
-53 3 -113 6 -132 9 -55 -8 -67 -88 -62 l-68 4 0 132 c0 131 1 134 26 160 31
30 83 35 108 10z"/>
<path d="M5210 20 c0 -16 7 -20 33 -20 l32 0 -25 20 c-32 25 -40 25 -40 0z"/>
</g>
</svg>
